# xmcd
#
# Track frame offsets:
#	150
#	13954
#	31132
#	46882
#	74428
#	92162
#	109361
#	123085
#	163692
#	179399
#	195257
#	211996
#	230747
#	243296
#
# Disc length: 3427 seconds
#
# Revision: 1
# Processed by: cddbd v1.5.2PL0 Copyright (c) Steve Scherf et al.
# Submitted via: audiograbber 1.83.01
#
DISCID=bc0d610e
DTITLE=Rusty Rocket - Blues na cesty
DYEAR=2006
DGENRE=Blues
TTITLE0=Blues na cesty
TTITLE1=Puberta v háji
TTITLE2=Kapesní blues
TTITLE3=Pro tebe vyprodáno
TTITLE4=Asi jsem tu sám
TTITLE5=Blues na rohu
TTITLE6=Blues od podlahy
TTITLE7=Nemá to cenu
TTITLE8=Na plnej plyn
TTITLE9=Panelák
TTITLE10=Fender Strat Blues
TTITLE11=Sbohem armádo
TTITLE12=Kerouac
TTITLE13=Fender Strat Blues (remastered)
EXTD=
EXTT0=
EXTT1=
EXTT2=
EXTT3=
EXTT4=
EXTT5=
EXTT6=
EXTT7=
EXTT8=
EXTT9=
EXTT10=
EXTT11=
EXTT12=
EXTT13=
PLAYORDER=
